<svg version="1.1" id="Layer_1" xmlns="http://www.w3.org/2000/svg" xmlns:xlink="http://www.w3.org/1999/xlink" x="0px" y="0px"
	 width="100%" viewBox="0 0 1024 1024" enable-background="new 0 0 1024 1024" xml:space="preserve">
<path fill="#000000" opacity="1.000000" stroke="none" 
	d="
M417.621521,717.478638 
	C405.104431,711.092468 395.149017,702.568726 389.286987,689.914185 
	C388.161957,687.485413 386.316193,686.636353 383.875854,686.129456 
	C358.407562,680.839233 338.524017,657.934814 336.899689,631.981384 
	C336.663086,628.200562 335.590240,624.468262 336.581604,620.578430 
	C337.170990,618.266113 334.897888,617.118347 333.454163,615.847961 
	C321.074677,604.955078 312.963318,591.620483 309.068787,575.494934 
	C304.489349,556.533447 308.306030,539.518555 319.883636,524.154114 
	C321.960907,521.397339 321.897186,519.692383 320.271271,516.780396 
	C312.078247,502.106750 310.978516,486.453613 314.808167,470.320343 
	C319.039215,452.495941 328.406219,437.534821 340.980835,424.491272 
	C343.485748,421.892975 343.884674,419.081482 343.772797,415.845337 
	C343.203339,399.373230 346.177612,383.604431 354.426086,369.247894 
	C365.201691,350.492950 381.224518,338.477722 402.685974,334.653229 
	C407.673798,333.764404 409.583862,330.849854 411.570557,327.130829 
	C424.292633,303.316040 461.677307,288.577698 488.376953,304.166260 
	C498.125610,309.857971 505.537292,317.744629 510.758118,327.729736 
	C511.352631,328.866730 511.533997,330.334503 513.139709,330.849121 
	C515.036560,330.084625 515.262024,328.057312 516.063538,326.524658 
	C527.638306,304.391235 552.230591,293.255005 576.364929,299.582092 
	C594.263489,304.274414 608.370789,314.099915 616.627136,331.146515 
	C617.768982,333.504120 619.493103,334.220642 621.683899,334.510895 
	C648.973206,338.126556 665.499939,354.959167 676.031921,378.974976 
	C681.280090,390.942261 682.317505,403.716949 682.187073,416.597961 
	C682.154358,419.831696 683.122925,422.246307 685.311096,424.620117 
	C695.063477,435.199890 703.828735,446.427643 708.519775,460.351837 
	C715.064514,479.778259 715.707153,498.828857 705.373535,517.262634 
	C704.025330,519.667786 703.629883,521.301086 705.638611,523.815796 
	C721.375061,543.515991 722.340210,565.137695 713.084717,587.743103 
	C708.722778,598.396545 701.711670,607.270569 692.923218,614.691528 
	C690.468079,616.764709 689.367004,619.022461 689.432922,622.414673 
	C689.721008,637.241150 686.931213,651.271606 677.372375,663.219360 
	C668.498169,674.311462 657.739746,682.604980 643.490417,685.537720 
	C639.853943,686.286133 637.466064,687.972229 635.719910,691.589478 
	C631.820923,699.666748 625.825684,706.249756 618.396606,711.255310 
	C600.659546,723.206482 581.254333,729.382812 559.603333,728.515076 
	C536.334106,727.582397 521.550598,715.609131 513.014404,694.398376 
	C511.543549,695.133850 511.334290,696.702820 510.845795,697.946045 
	C501.880981,720.763000 482.682770,729.709167 460.057343,728.927307 
	C445.218109,728.414429 431.144531,724.557617 417.621521,717.478638 
M504.015320,382.500000 
	C503.942871,371.835815 504.094696,361.164368 503.750763,350.508942 
	C503.056305,328.995239 483.885162,310.468201 463.017914,311.143188 
	C451.580566,311.513153 441.127625,315.042603 431.979980,322.125061 
	C415.783325,334.665039 411.920929,357.837555 424.514587,372.060120 
	C429.247772,377.405487 430.525360,382.443268 429.852875,389.161865 
	C428.160278,406.072632 438.924438,419.822693 455.663177,422.924377 
	C457.300171,423.227722 458.982147,423.413727 460.551117,423.932709 
	C463.763214,424.995209 465.555908,427.285553 465.203552,430.733276 
	C464.875946,433.938873 462.789001,435.809113 459.686951,436.282745 
	C458.076935,436.528534 456.344238,436.457916 454.736450,436.157959 
	C432.331329,431.977753 414.718750,413.508636 416.694336,386.527039 
	C416.843964,384.483459 416.851837,382.556610 415.272217,380.941956 
	C407.600677,373.100220 404.580780,363.493134 404.690430,352.731720 
	C404.716217,350.205048 403.799835,348.809998 401.088348,349.605347 
	C396.949524,350.819397 392.749817,351.701660 388.738708,353.496704 
	C372.996552,360.541565 364.680328,373.382538 360.178162,389.289276 
	C358.187622,396.322021 357.576874,403.522644 357.642029,411.373535 
	C365.128510,409.084503 372.183929,408.229187 379.342712,408.814575 
	C397.096283,410.266327 411.991028,422.735107 412.486786,441.185028 
	C412.679626,448.360168 410.141602,452.325531 405.332520,452.235352 
	C400.783478,452.150024 399.078217,449.239807 399.199432,441.768280 
	C399.345856,432.740143 394.867035,426.441162 386.333130,423.770050 
	C377.083923,420.875061 367.894196,422.078064 358.720703,424.238861 
	C357.132141,424.613068 356.223541,425.678680 355.287384,426.915955 
	C353.282654,429.565491 351.230469,432.197388 348.992096,434.648743 
	C338.491150,446.148865 330.504517,459.048248 326.908081,474.353241 
	C324.035431,486.577972 324.814972,498.532410 330.816467,509.737976 
	C337.828674,522.830688 351.380463,527.316956 366.997772,522.052795 
	C372.657654,520.145020 376.161530,521.171143 377.470184,525.119690 
	C378.781311,529.075745 376.463440,532.259766 371.381073,534.366394 
	C359.143768,539.438721 347.297424,538.749878 335.927856,532.085083 
	C332.523376,530.089355 330.851318,530.875488 328.663544,533.913330 
	C323.212036,541.483276 320.380463,549.820129 320.138245,559.048218 
	C319.253937,592.741333 349.929993,622.103027 384.413452,620.780640 
	C392.484558,620.471191 398.977661,616.685425 405.483673,612.513000 
	C409.968079,609.637024 415.018982,612.301208 415.151093,617.349854 
	C415.239838,620.742188 413.115173,622.954956 410.611908,624.682678 
	C399.793457,632.149292 387.976990,635.561340 374.717133,633.788086 
	C366.417297,632.678101 358.695496,629.802551 350.962708,626.594849 
	C349.599609,629.674988 350.307709,632.283020 350.729736,634.855042 
	C352.193329,643.774414 355.979889,651.636597 361.663361,658.626770 
	C370.811066,669.877625 388.965942,679.318909 405.805603,671.391602 
	C410.134155,669.354004 413.015137,666.939880 414.296387,661.916077 
	C418.833130,644.126892 430.140015,634.655090 448.524414,632.682861 
	C466.826691,630.719482 474.095184,619.741333 472.678345,605.830994 
	C472.171997,600.859680 474.971405,597.550476 479.053314,597.272583 
	C482.648926,597.027893 485.573059,600.424500 486.126587,605.488770 
	C487.573181,618.723694 479.491394,633.590576 467.770355,640.318481 
	C461.298035,644.033508 454.133362,644.411255 447.172485,645.832275 
	C434.666168,648.385376 428.013184,655.046509 426.143127,667.855347 
	C425.297882,673.644775 422.458954,677.644409 417.474548,680.451904 
	C413.817780,682.511658 409.998535,684.110229 405.962982,685.204895 
	C401.936615,686.297058 401.686859,688.408203 404.316071,691.249756 
	C406.010681,693.081238 407.669250,694.983521 409.577545,696.573792 
	C426.168457,710.400024 445.258148,716.999878 466.854401,715.691589 
	C481.930542,714.778320 492.612915,707.135193 499.614563,693.758179 
	C504.653320,684.131348 504.489014,673.751282 504.508911,663.520447 
	C504.572662,630.702637 504.153259,597.883911 503.923065,565.065491 
	C503.846039,554.078430 503.875702,553.637207 493.026276,553.002869 
	C465.531372,551.395081 441.398804,557.323975 426.367523,583.499817 
	C421.386871,592.173157 413.658295,597.978271 403.675873,600.253967 
	C383.886475,604.765320 367.303711,598.155518 352.697510,585.207092 
	C349.120544,582.036194 348.823181,577.245361 351.425842,574.519775 
	C354.037476,571.784851 358.036407,572.291321 361.909912,576.076965 
	C366.515472,580.578064 371.793396,583.920654 377.848083,586.100098 
	C392.580536,591.403198 408.026215,588.904114 416.984833,574.647095 
	C420.162994,569.589233 423.485107,564.577637 428.038055,560.524475 
	C447.552734,543.151855 470.731842,537.477600 496.159210,539.359619 
	C503.917389,539.933838 503.540619,540.305420 504.083374,532.392883 
	C505.784973,507.585968 503.700653,482.781219 504.402802,457.958832 
	C505.104218,433.162659 504.212708,408.321472 504.015320,382.500000 
M637.535583,410.784760 
	C646.338196,407.858032 655.256714,408.020752 664.120789,410.219147 
	C667.854858,411.145203 669.173279,410.113007 668.753540,406.439484 
	C668.394409,403.295807 668.029175,400.152802 667.678467,397.008209 
	C665.128296,374.143250 648.178711,354.629425 627.229492,350.132660 
	C623.007324,349.226410 620.949951,349.777344 621.116882,354.679291 
	C621.430298,363.879761 618.383850,371.972107 612.329407,378.963318 
	C610.837769,380.685760 609.104187,382.512756 609.646423,385.152008 
	C610.897888,391.243988 609.383545,397.113342 608.066589,402.934967 
	C604.377930,419.240601 588.864868,433.559509 572.351440,436.115448 
	C570.713989,436.368896 569.032043,436.376099 567.368835,436.414246 
	C563.446716,436.504181 560.769897,434.546692 560.397522,430.740540 
	C559.998108,426.658539 562.377747,424.201660 566.522583,423.714722 
	C577.981140,422.368530 586.993958,417.378052 592.721069,406.933746 
	C595.911255,401.115997 596.597656,395.021729 596.174561,388.612823 
	C595.882812,384.193939 594.552002,379.560760 598.457520,375.898621 
	C607.996826,366.953735 609.454834,355.712799 607.196106,343.677856 
	C604.260498,328.036438 593.093140,319.703552 579.452942,314.077850 
	C552.251831,302.859161 522.619446,322.455414 522.126282,351.859772 
	C521.983826,360.356812 521.968506,368.856720 521.966919,377.355316 
	C521.957153,429.337372 521.960571,481.319458 521.981750,533.301514 
	C521.984375,539.810425 522.604065,540.543701 528.770691,539.527283 
	C536.127747,538.314636 543.433350,538.794739 550.668579,539.829651 
	C574.499573,543.238403 595.114868,552.214539 608.538330,573.659241 
	C617.552917,588.060669 631.091492,592.423584 647.049316,586.666077 
	C653.893555,584.196716 659.756775,580.365967 664.996826,575.289307 
	C668.500061,571.895264 672.637573,572.199585 675.103149,575.250427 
	C677.307007,577.977173 676.516907,582.738586 673.115784,585.426941 
	C669.594055,588.210571 665.981140,590.921692 662.181152,593.302124 
	C652.927063,599.099121 642.710205,602.128784 631.829163,601.801697 
	C616.323914,601.335510 605.204224,593.242432 597.430908,580.251648 
	C591.491577,570.325745 583.315002,563.104065 572.649048,558.656982 
	C557.306030,552.259888 541.336548,551.522827 525.072693,553.289429 
	C522.011414,553.622009 521.982788,555.782654 521.986450,558.034912 
	C521.996216,564.033997 522.009949,570.033020 522.013062,576.032104 
	C522.030640,609.860535 521.832397,643.690979 522.146179,677.516663 
	C522.318420,696.082947 536.471008,712.608765 554.735596,715.046875 
	C577.868896,718.134766 598.614441,711.696411 616.395447,696.473877 
	C619.323303,693.967346 622.395508,691.205383 623.523865,686.986938 
	C622.906250,686.492065 622.459961,685.974731 621.895142,685.716370 
	C620.839661,685.233582 619.735535,684.828796 618.616638,684.517456 
	C608.373657,681.667786 601.007263,676.830078 599.107300,664.828125 
	C597.622131,655.446472 591.735046,648.070496 581.256470,646.225342 
	C577.319458,645.532104 573.377380,644.866028 569.431641,644.224060 
	C556.233704,642.077026 547.267883,634.555969 542.664490,622.207214 
	C540.290222,615.838196 538.582886,609.066772 540.700745,602.168274 
	C541.706482,598.892273 543.910461,596.609497 547.699829,597.044250 
	C551.511902,597.481628 553.001404,600.121277 553.194214,603.652222 
	C553.284912,605.312500 553.171997,606.983276 553.170776,608.649292 
	C553.161072,621.646362 560.902344,630.251221 573.838318,631.827332 
	C577.957275,632.329224 582.175781,632.743774 586.099854,633.985046 
	C600.181152,638.439087 608.512573,648.351440 611.948853,662.528198 
	C612.720215,665.710510 613.677917,668.451477 617.019653,669.988098 
	C624.013062,673.204224 631.156982,674.583130 638.868896,673.467834 
	C658.587280,670.616516 674.276489,651.083313 675.845154,629.383545 
	C675.916504,628.396240 675.854248,627.358398 674.739929,626.712036 
	C673.350342,626.163391 672.302002,627.192566 671.102112,627.679077 
	C659.234924,632.490112 647.192627,635.872314 634.154602,633.236694 
	C626.231079,631.635010 619.458252,627.918640 613.463806,622.735962 
	C610.538330,620.206726 609.476501,616.871033 612.163452,613.434204 
	C614.843140,610.006714 617.988953,611.053650 621.059875,612.936707 
	C622.478638,613.806763 623.853394,614.749084 625.240845,615.669373 
	C631.943237,620.115295 639.454956,621.410034 647.232666,620.596802 
	C666.786438,618.552368 682.641357,609.696655 694.548645,593.970825 
	C708.551941,575.476807 709.718506,552.807495 697.840088,534.219482 
	C695.508667,530.571167 693.334961,529.488159 689.404297,532.183167 
	C685.560608,534.818542 681.079224,536.313110 676.380432,536.890625 
	C668.295776,537.884399 660.411682,537.287354 652.964294,533.698181 
	C649.259766,531.912903 646.986694,529.121704 648.717102,524.880188 
	C650.419678,520.706970 653.886108,520.089111 657.873657,521.402771 
	C658.663208,521.662842 659.407776,522.058105 660.195129,522.326233 
	C675.042358,527.382507 687.902649,522.683350 695.544800,508.945374 
	C703.481140,494.678558 701.197327,479.901001 696.425598,465.383514 
	C691.302673,449.797546 680.240295,438.000641 669.915710,425.790741 
	C668.832703,424.510040 667.410339,424.139832 665.954712,423.923615 
	C659.538147,422.970581 653.121643,421.674866 646.596191,422.301178 
	C636.280273,423.291290 625.659180,429.730377 626.909302,443.394257 
	C627.412720,448.897003 624.614807,452.166595 620.413452,452.144806 
	C616.366821,452.123810 613.791199,448.695496 613.738953,443.260773 
	C613.595093,428.290527 621.729309,416.914551 637.535583,410.784760 
z"/>
<path fill="#000000" opacity="1.000000" stroke="none" 
	d="
M396.231567,495.341370 
	C409.616882,477.091461 430.933014,470.092438 449.601654,477.659088 
	C452.921387,479.004608 456.168030,480.850037 455.832458,485.089844 
	C455.583435,488.235870 453.112671,489.891968 450.253479,490.806274 
	C448.178802,491.469696 446.356049,490.374634 444.462891,489.821228 
	C427.232239,484.784363 408.955109,493.740479 403.172607,510.387848 
	C399.973114,519.598816 400.752014,528.689758 405.496216,537.371948 
	C407.935913,541.836731 407.269562,545.313293 403.898071,547.300842 
	C400.583466,549.254944 396.220245,547.768433 393.871887,543.497864 
	C386.353516,529.825562 386.639832,515.854553 392.713135,501.786591 
	C393.631714,499.658905 394.913177,497.687897 396.231567,495.341370 
z"/>
<path fill="#000000" opacity="1.000000" stroke="none" 
	d="
M570.454102,484.632690 
	C570.062744,480.082397 572.766113,478.441986 576.154053,477.258850 
	C599.856750,468.981293 627.522766,482.923920 635.266174,506.917511 
	C638.959839,518.362488 638.755981,529.509766 633.737671,540.493958 
	C633.254028,541.552612 632.723633,542.599487 632.112854,543.588867 
	C629.224792,548.267029 625.642090,549.774902 622.324646,547.755249 
	C618.669250,545.529846 618.226135,542.446777 620.774048,537.374451 
	C627.338867,524.305176 626.259583,511.519318 617.184265,500.421844 
	C608.215698,489.454987 595.943970,486.051331 582.040100,489.570160 
	C574.731689,491.419830 572.791199,490.699615 570.454102,484.632690 
z"/>
</svg>